<?xml version="1.0" encoding="utf-8"?>
<svg width="17" height="17" viewBox="0 0 50 50" xmlns="http://www.w3.org/2000/svg">
  <path fill="transparent" stroke-width="2" d="M 32.723 20.08 L 21.534 32.061 L 17.511 28.176 C 16.615 27.353 15.695 28.374 16.591 29.196 C 16.591 29.196 19.645 32.164 21.624 34.065 C 21.688 34.126 33.894 20.986 33.894 20.986 C 34.807 19.964 33.637 19.058 32.723 20.08 Z" stroke="#22c55e"/>
  <path fill-rule="evenodd" clip-rule="evenodd" d="M 24.675 5.81 C 22.133 5.81 20.069 7.874 20.069 10.415 L 29.281 10.415 C 29.281 7.874 27.22 5.81 24.675 5.81 Z M 16.695 5.81 C 18.289 3.058 21.267 1.204 24.675 1.204 C 28.086 1.204 31.064 3.058 32.655 5.81 L 36.766 5.81 C 40.583 5.81 43.675 8.905 43.675 12.719 L 43.675 40.356 C 43.675 44.171 41.158 47.265 36.766 47.265 L 12.584 47.265 C 8.767 47.265 5.675 44.171 5.675 40.356 L 5.675 12.719 C 5.675 8.905 8.767 5.81 12.584 5.81 L 16.695 5.81 Z M 15.464 10.415 L 12.584 10.415 C 11.313 10.415 10.281 11.449 10.281 12.719 L 10.281 40.356 C 10.281 41.629 11.313 42.658 12.584 42.658 L 36.766 42.658 C 38.616 42.658 39.069 41.629 39.069 40.356 L 39.069 12.719 C 39.069 11.449 38.039 10.415 36.766 10.415 L 33.886 10.415 C 33.886 12.96 31.826 15.022 29.281 15.022 L 20.069 15.022 C 17.526 15.022 15.464 12.96 15.464 10.415 Z" style="fill: rgb(34, 197, 94);"/>
</svg>