<svg xmlns="http://www.w3.org/2000/svg" viewBox="0 0 50 50" width="18px" height="18px">

    <path fill="#22c55e" stroke="#22c55e" stroke-width="2"
        d="M 11 4 C 7.1 4 4 7.1 4 11 L 4 39 C 4 42.9 7.1 46 11 46 L 39 46 C 42.9 46 46 42.9 46 39 L 46 14.900391 L 44 17.300781 L 44 39 C 44 41.8 41.8 44 39 44 L 11 44 C 8.2 44 6 41.8 6 39 L 6 11 C 6 8.2 8.2 6 11 6 L 37.199219 6 L 38.900391 4 L 11 4 z" />
    <path id="tickPathReverse" fill="transparent" stroke="#22c55e" stroke-width="2"
        d="M 43.236328 7.7539062 L 23.914062 30.554688 L 15.78125 22.96875 L 14.417969 24.431641 L 24.083984 33.447266 L 44.763672 9.046875 L 43.236328 7.7539062 z" />
  </svg>
  