<svg xmlns="http://www.w3.org/2000/svg" data-name="Layer 106" viewBox="0 0 100 125" x="0px" y="0px" width="18px" height="18px">
    <path fill="#a8b8c1"
        d="M15,86.17a.5.5,0,0,0-.5.5V90a.5.5,0,0,0,.5.5H68.33a10.49,10.49,0,0,0,4.45-20h.55a10.5,10.5,0,0,0,0-21H62.25V45.56a.5.5,0,0,0-.5-.5H59.3c.49-1.9,1.72-7.56-.24-10.45A8.7,8.7,0,0,0,54.5,31.1a.73.73,0,0,1-.56-.66v-.88a.73.73,0,0,1,.56-.66,8.7,8.7,0,0,0,4.56-3.51c2-2.89.73-8.55.24-10.45h2.45a.5.5,0,0,0,.5-.5V10a.5.5,0,0,0-.5-.5H38.25a.5.5,0,0,0-.5.5v4.44a.5.5,0,0,0,.5.5H40.7c-.49,1.9-1.72,7.56.24,10.45A8.66,8.66,0,0,0,45.5,28.9a.73.73,0,0,1,.56.66v.88a.73.73,0,0,1-.56.66,8.66,8.66,0,0,0-4.56,3.51c-2,2.89-.73,8.55-.24,10.45H38.25a.5.5,0,0,0-.5.5V49.5H20a.5.5,0,0,0-.5.5v3.33a.5.5,0,0,0,.5.5A6.18,6.18,0,0,1,26.17,60,6.18,6.18,0,0,1,20,66.17a.5.5,0,0,0-.5.5V69.5H15a.5.5,0,0,0-.5.5v3.33a.5.5,0,0,0,.5.5A6.18,6.18,0,0,1,21.17,80,6.18,6.18,0,0,1,15,86.17ZM22.17,80a7.19,7.19,0,0,0-3.52-6.17H68.33c.22,0,.44,0,.66,0V79.5H39.93a.5.5,0,0,0,0,1H69v2.38H45.16a.5.5,0,0,0-.5.5.51.51,0,0,0,.5.5H69v2.25c-.22,0-.44,0-.66,0H18.66a7.77,7.77,0,0,0,1.41-1.1A7.16,7.16,0,0,0,22.17,80ZM15.5,70.5H68.33a9.5,9.5,0,0,1,0,19H15.5V87.17H68.33c.25,0,.49,0,.73,0l.12,0a5.58,5.58,0,0,0,.59-.09h0a7.15,7.15,0,0,0,5.52-5.52.09.09,0,0,0,0,0,5.81,5.81,0,0,0,.09-.58.68.68,0,0,0,0-.14,5.69,5.69,0,0,0,0-.72,7.18,7.18,0,0,0-7.17-7.17H15.5Zm5-3.33H73.33c.25,0,.49,0,.73,0l.12,0a5.58,5.58,0,0,0,.59-.09h0a7.15,7.15,0,0,0,5.52-5.52.09.09,0,0,0,0-.05,5.81,5.81,0,0,0,.09-.58.68.68,0,0,0,0-.14,5.69,5.69,0,0,0,0-.72,7.18,7.18,0,0,0-7.17-7.17H20.5V50.5H73.33a9.5,9.5,0,0,1,0,19H20.5ZM27.17,60a7.19,7.19,0,0,0-3.52-6.17H73.33c.22,0,.44,0,.66,0V59.5H44.93a.5.5,0,0,0,0,1H74v2.38H50.16a.5.5,0,0,0-.5.5.51.51,0,0,0,.5.5H74v2.25c-.22,0-.44,0-.66,0H23.66a7.77,7.77,0,0,0,1.41-1.1A7.16,7.16,0,0,0,27.17,60Zm50.52,4.36A6.14,6.14,0,0,1,75,65.94V54.06A6.19,6.19,0,0,1,79.5,60,6.11,6.11,0,0,1,77.69,64.36ZM38.75,46.06h22.5V49.5H38.75Zm8.31-15.62v-.88a1.73,1.73,0,0,0-1.27-1.62,7.61,7.61,0,0,1-4-3.12c-1.79-2.64-.43-8.39,0-9.88H58.27c.39,1.49,1.75,7.24,0,9.88a7.61,7.61,0,0,1-4,3.12,1.73,1.73,0,0,0-1.27,1.62v.88a1.73,1.73,0,0,0,1.27,1.62,7.61,7.61,0,0,1,4,3.12c1.79,2.64.43,8.39,0,9.88H41.73c-.39-1.49-1.75-7.24,0-9.88a7.61,7.61,0,0,1,4-3.12A1.73,1.73,0,0,0,47.06,30.44ZM38.75,10.5h22.5v3.44H38.75ZM70,74.06A6.19,6.19,0,0,1,74.5,80,6.18,6.18,0,0,1,70,85.94Z" />
</svg>
