<?xml version="1.0" standalone="no"?>
<!DOCTYPE svg PUBLIC "-//W3C//DTD SVG 20010904//EN" "http://www.w3.org/TR/2001/REC-SVG-20010904/DTD/svg10.dtd">
<svg
    version="1.0" xmlns="http://www.w3.org/2000/svg"
    width="674.000000pt" height="674.000000pt" viewBox="0 0 674.000000 674.000000"
    preserveAspectRatio="xMidYMid meet">
    <metadata> SERVER-X-101 </metadata>
    <g transform="translate(0.000000,674.000000) scale(0.100000,-0.100000)"
        fill="#000000" stroke="none">
        <path
            d="M3190 6354 c-486 -35 -908 -148 -1305 -349 -911 -461 -1510 -1304 -1604 -2259 -6 -60 -11 -141 -11 -180 0 -82 -24 -223 -115 -691 -88 -456 -92 -477 -115 -648 -78 -572 3 -930 270 -1198 366 -367 1060 -554 2310 -621 290 -15 1210 -15 1500 0 614 33 1042 89 1415 184 893 227 1249 647 1195 1410 -17 236 -36 362 -136 872 -84 432 -112 609 -118 756 -11 247 -48 445 -131 695 -138 420 -363 783 -685 1105 -503 503 -1167 820 -1900 905 -135 15 -465 26 -570 19z m-707 -2421 c291 -86 488 -392 448 -696 -39 -298 -241 -517 -520 -564 -85 -14 -103 -14 -187 -1 -250 41 -444 223 -510 478 -22 85 -22 235 0 320 63 248 269 443 506 480 70 11 196 3 263 -17z m2150 0 c155 -45 299 -164 374 -308 58 -112 77 -189 77 -315 0 -126 -19 -203 -77 -315 -76 -147 -219 -263 -382 -311 -73 -21 -218 -24 -295 -5 -227 55 -411 243 -466 476 -24 105 -16 276 19 373 65 185 207 331 380 392 118 42 257 47 370 13z" />
    </g>
</svg>